<?xml version="1.0" encoding="UTF-8"?>
<svg id="Layer_1" xmlns="http://www.w3.org/2000/svg" version="1.1" viewBox="0 0 247.92 102.6">
  <!-- Generator: Adobe Illustrator 30.3.0, SVG Export Plug-In . SVG Version: 2.1.3 Build 182)  -->
  <defs>
    <style>
      .st0 {
        fill: #c2410c;
      }
    </style>
  </defs>
  <polygon class="st0" points="59.13 1.71 41.77 47.75 24.56 1.71 0 1.71 30.59 74.18 52.65 74.18 83.1 1.71 59.13 1.71"/>
  <path class="st0" d="M146.34,1.71l-17.21,46.04L111.77,1.71h-24.56l29.86,70.91c-3.82,6.82-8.38,9.8-17.06,9.8l-44.56-.25,6.56,20.18,38,.25c20.44,0,30-5.26,35.89-19.18L170.31,1.71h-23.97Z"/>
  <path class="st0" d="M222.75,5.86s-12.62-5.25-23.43-5.25c-20.38,0-35.63,16.5-35.63,38.41s15.67,38.28,35.36,38.55c18.67.25,24.82-7.51,24.82-7.51v5.57h18.3V2.55l-19.41,3.31ZM203.48,60.37c-11.65,0-19.69-9.43-19.69-21.21s8.04-21.21,19.69-21.21,19.69,9.15,19.69,21.21-8.04,21.21-19.69,21.21Z"/>
</svg>